<svg width="64" height="64" viewBox="0 0 64 64" fill="none" xmlns="http://www.w3.org/2000/svg">
<path fill-rule="evenodd" clip-rule="evenodd" d="M62.2204 29.9552C59.398 14.192 53.0876 9.54236 49.7308 9.54236C44.4924 9.54236 43.1484 13.4368 31.9996 13.568C20.8508 13.4368 19.5068 9.54236 14.2684 9.54236C10.9116 9.54236 4.59799 14.192 1.77559 29.9552C0.165989 38.9536 -1.58121 52.3872 2.58199 54C7.76279 56.0064 9.51959 50.9888 15.2092 46.7488C20.9852 42.4512 23.7564 41.44 31.9996 41.44C40.2428 41.44 43.014 42.4512 48.79 46.7488C54.4796 50.9856 56.2364 56.0064 61.4172 54C65.5804 52.3872 63.8332 38.9568 62.2204 29.9552ZM19.1996 32C17.5022 32 15.8743 31.3257 14.6741 30.1254C13.4739 28.9252 12.7996 27.2973 12.7996 25.6C12.7996 23.9026 13.4739 22.2747 14.6741 21.0745C15.8743 19.8742 17.5022 19.2 19.1996 19.2C20.897 19.2 22.5248 19.8742 23.7251 21.0745C24.9253 22.2747 25.5996 23.9026 25.5996 25.6C25.5996 27.2973 24.9253 28.9252 23.7251 30.1254C22.5248 31.3257 20.897 32 19.1996 32ZM41.5996 32C40.7509 32 39.937 31.6628 39.3368 31.0627C38.7367 30.4626 38.3996 29.6487 38.3996 28.8C38.3996 27.9513 38.7367 27.1373 39.3368 26.5372C39.937 25.9371 40.7509 25.6 41.5996 25.6C42.4483 25.6 43.2622 25.9371 43.8623 26.5372C44.4624 27.1373 44.7996 27.9513 44.7996 28.8C44.7996 29.6487 44.4624 30.4626 43.8623 31.0627C43.2622 31.6628 42.4483 32 41.5996 32ZM47.9996 25.6C47.1509 25.6 46.337 25.2628 45.7368 24.6627C45.1367 24.0626 44.7996 23.2487 44.7996 22.4C44.7996 21.5513 45.1367 20.7373 45.7368 20.1372C46.337 19.5371 47.1509 19.2 47.9996 19.2C48.8483 19.2 49.6622 19.5371 50.2623 20.1372C50.8624 20.7373 51.1996 21.5513 51.1996 22.4C51.1996 23.2487 50.8624 24.0626 50.2623 24.6627C49.6622 25.2628 48.8483 25.6 47.9996 25.6Z" fill="black"/>
</svg>
