<svg width="64" height="64" viewBox="0 0 64 64" fill="none" xmlns="http://www.w3.org/2000/svg">
<path fill-rule="evenodd" clip-rule="evenodd" d="M11.005 47.7669C10.2495 46.8707 8.84713 44.2005 8.18837 42.5536C8.1488 42.4373 8.10969 42.3232 8.07131 42.2112C7.0191 39.141 6.51569 37.672 12.0386 36.4885C12.9435 36.2946 13.6691 36.1058 14.2644 35.9508C15.453 35.6415 16.1223 35.4673 16.6632 35.6577C17.3604 35.9032 17.8443 36.7546 18.9519 38.7033C19.0502 38.8762 19.1534 39.0579 19.2622 39.2485C19.9165 40.3955 20.4491 41.3968 20.9117 42.2665C22.9389 46.0773 23.6231 47.3636 27.3154 47.327C30.4364 47.2961 33.5636 47.2961 36.6846 47.327C40.3769 47.3636 41.0611 46.0773 43.0883 42.2665C43.5509 41.3968 44.0835 40.3955 44.7378 39.2485C44.8466 39.0579 44.9498 38.8762 45.0481 38.7032C46.1557 36.7546 46.6396 35.9032 47.3368 35.6577C47.8777 35.4673 48.547 35.6415 49.7356 35.9508C50.3309 36.1058 51.0565 36.2946 51.9614 36.4885C57.4843 37.672 56.9809 39.141 55.9287 42.2112C55.8903 42.3232 55.8512 42.4373 55.8116 42.5536C55.1529 44.2005 53.7505 46.8707 52.995 47.7669C52.0183 48.9254 48.6336 53.5313 53.665 53.9683C55.1036 54.0932 57.5949 52.9461 60.0367 48.4484C60.0483 48.427 60.0644 48.398 60.0846 48.3616C60.9072 46.879 68.5804 33.0484 59.9005 17.8503C58.3335 15.3977 39.296 14.0007 32 14C24.704 14.0007 5.66647 15.3977 4.09951 17.8503C-4.5804 33.0484 3.09282 46.879 3.91536 48.3616L3.91543 48.3617C3.93562 48.3981 3.95167 48.427 3.96325 48.4484C6.40507 52.9461 8.89638 54.0932 10.335 53.9683C15.3664 53.5313 11.9817 48.9254 11.005 47.7669ZM13.9454 29.566C21.588 25.9327 19.614 20.1112 14.005 20.9678C12.9526 21.1285 11.8943 21.3466 10.8519 21.5631C4.86644 22.806 6.64038 28.4734 7.36916 29.2252C8.29407 30.1792 10.6404 30.8607 13.9454 29.566ZM50.0352 29.566C42.3926 25.9327 44.3666 20.1112 49.9757 20.9678C51.028 21.1285 52.0864 21.3466 53.1287 21.5631C59.1142 22.806 57.3402 28.4734 56.6115 29.2252C55.6865 30.1792 53.3402 30.8607 50.0352 29.566ZM38.7545 25.8402C34.3092 25.0157 29.7491 25.0157 25.3038 25.8402C24.6506 25.9614 24.0067 25.5634 23.8467 24.9187L23.0635 21.7641C22.8976 21.096 23.3137 20.4205 23.9895 20.2898C29.2997 19.2633 34.7586 19.2633 40.0688 20.2898C40.7446 20.4205 41.1607 21.096 40.9948 21.7641L40.2116 24.9187C40.0516 25.5634 39.4077 25.9614 38.7545 25.8402ZM32.0291 38.9078C31.2705 38.9078 30.5429 38.6074 30.0065 38.0728C29.47 37.5382 29.1686 36.813 29.1686 36.0569C29.1686 35.3009 29.47 34.5757 30.0065 34.0411C30.5429 33.5065 31.2705 33.2061 32.0291 33.2061C32.7878 33.2061 33.5154 33.5065 34.0518 34.0411C34.5883 34.5757 34.8896 35.3009 34.8896 36.0569C34.8896 36.813 34.5883 37.5382 34.0518 38.0728C33.5154 38.6074 32.7878 38.9078 32.0291 38.9078Z" fill="black"/>
</svg>
