<svg width="240" height="240" viewBox="0 0 240 240" fill="none" xmlns="http://www.w3.org/2000/svg">
<path d="M120 240C186.274 240 240 186.274 240 120C240 53.7258 186.274 0 120 0C53.7257 0 -0.00012207 53.7258 -0.00012207 120C-0.00012207 186.274 53.7257 240 120 240Z" fill="#0C0C0C"/>
<path d="M120 224.199C177.547 224.199 224.198 177.547 224.198 120C224.198 62.4526 177.547 15.8013 120 15.8013C62.4525 15.8013 15.8011 62.4526 15.8011 120C15.8011 177.547 62.4525 224.199 120 224.199Z" fill="white"/>
<path d="M93.9502 9.67676H146.58L93.9502 230.201H146.58L93.9502 9.67676Z" fill="#0C0C0C"/>
<path d="M120 199.619C163.972 199.619 199.619 163.972 199.619 120C199.619 76.0277 163.972 40.3811 120 40.3811C76.0275 40.3811 40.381 76.0277 40.381 120C40.381 163.972 76.0275 199.619 120 199.619Z" fill="#0C0C0C"/>
<path d="M73.0451 166.628V73.3719H97.9106V108.69H142.048V73.3719H166.954V166.669H142.089V130.493H97.9106V166.669H73.0451V166.628Z" fill="white"/>
</svg>
