<svg width="240" height="240" viewBox="0 0 240 240" fill="none" xmlns="http://www.w3.org/2000/svg">
<path d="M120 240C186.274 240 240 186.274 240 120C240 53.7258 186.274 0 120 0C53.7258 0 0 53.7258 0 120C0 186.274 53.7258 240 120 240Z" fill="#0C0C0C"/>
<path d="M120 224.199C177.547 224.199 224.199 177.547 224.199 120C224.199 62.4526 177.547 15.8013 120 15.8013C62.4526 15.8013 15.8013 62.4526 15.8013 120C15.8013 177.547 62.4526 224.199 120 224.199Z" fill="#286837"/>
<path d="M93.9503 9.67676H146.58L93.9503 230.201H146.58L93.9503 9.67676Z" fill="#0C0C0C"/>
<path d="M120 199.619C163.972 199.619 199.619 163.972 199.619 120C199.619 76.0277 163.972 40.3811 120 40.3811C76.0276 40.3811 40.3811 76.0277 40.3811 120C40.3811 163.972 76.0276 199.619 120 199.619Z" fill="#0C0C0C"/>
<path d="M105.709 173.569V66.4307H134.291V173.61H105.709V173.569Z" fill="white"/>
</svg>
