<svg width="240" height="240" viewBox="0 0 240 240" fill="none" xmlns="http://www.w3.org/2000/svg">
<path d="M120 240C186.274 240 240 186.274 240 120C240 53.7258 186.274 0 120 0C53.7259 0 0.00012207 53.7258 0.00012207 120C0.00012207 186.274 53.7259 240 120 240Z" fill="#0C0C0C"/>
<path d="M120 224.199C177.547 224.199 224.199 177.547 224.199 120C224.199 62.4526 177.547 15.8013 120 15.8013C62.4527 15.8013 15.8014 62.4526 15.8014 120C15.8014 177.547 62.4527 224.199 120 224.199Z" fill="#E6BD11"/>
<path d="M93.9504 9.67676H146.581L93.9504 230.201H146.581L93.9504 9.67676Z" fill="#0C0C0C"/>
<path d="M120 199.619C163.972 199.619 199.619 163.972 199.619 120C199.619 76.0277 163.972 40.3811 120 40.3811C76.0278 40.3811 40.3812 76.0277 40.3812 120C40.3812 163.972 76.0278 199.619 120 199.619Z" fill="#0C0C0C"/>
<path d="M60.4696 157.768L65.655 98.6866C66.39 89.8673 68.799 83.4978 72.882 79.6189C76.965 75.7401 82.1096 73.7802 88.3567 73.7802C95.0528 73.7802 100.361 75.8217 104.28 79.9047C108.2 83.9878 110.732 89.5407 111.834 96.6043L118.367 137.679C118.53 138.578 118.734 139.231 119.102 139.68C119.469 140.129 119.959 140.333 120.694 140.333C121.429 140.333 121.96 140.088 122.327 139.558C122.695 139.027 122.899 138.333 122.981 137.475L129.269 96.4818C130.289 89.4998 132.78 83.9878 136.7 79.9047C140.619 75.8217 145.887 73.7802 152.501 73.7802C159.483 73.7802 164.668 75.7401 168.098 79.6598C171.528 83.5795 173.61 89.949 174.345 98.6866L179.531 157.768H158.258L153.848 95.5019C153.767 94.7669 153.644 94.1545 153.481 93.6237C153.277 93.0929 152.828 92.8479 152.093 92.8479C151.521 92.8479 151.031 93.0929 150.664 93.5829C150.296 94.0728 150.092 94.6444 150.01 95.2977L142.62 139.517C141.681 145.396 139.313 150.133 135.516 153.726C131.718 157.319 126.737 159.115 120.572 159.115C114.161 159.115 109.058 157.278 105.26 153.562C101.422 149.847 99.0542 145.111 98.1151 139.394L90.3982 95.4202C90.2349 94.6036 89.9899 93.9912 89.6224 93.542C89.2549 93.0929 88.765 92.8888 88.1934 92.8888C87.4584 92.8888 86.9684 93.1337 86.7235 93.6645C86.4785 94.1953 86.3152 94.8486 86.2335 95.6652L81.8238 157.85H60.4696V157.768Z" fill="white"/>
</svg>
