<svg width="240" height="240" viewBox="0 0 240 240" fill="none" xmlns="http://www.w3.org/2000/svg">
<path d="M120 240C186.274 240 240 186.274 240 120C240 53.7258 186.274 0 120 0C53.7258 0 0 53.7258 0 120C0 186.274 53.7258 240 120 240Z" fill="#0C0C0C"/>
<path d="M120 224.199C177.547 224.199 224.199 177.547 224.199 120C224.199 62.4526 177.547 15.8013 120 15.8013C62.4526 15.8013 15.8013 62.4526 15.8013 120C15.8013 177.547 62.4526 224.199 120 224.199Z" fill="#B33C33"/>
<path d="M93.9503 9.67676H146.58L93.9503 230.201H146.58L93.9503 9.67676Z" fill="#0C0C0C"/>
<path d="M120 199.619C163.972 199.619 199.619 163.972 199.619 120C199.619 76.0277 163.972 40.3811 120 40.3811C76.0277 40.3811 40.3811 76.0277 40.3811 120C40.3811 163.972 76.0277 199.619 120 199.619Z" fill="#0C0C0C"/>
<path d="M130.942 134.699L104.321 129.473C94.5219 127.513 87.05 124.083 81.8646 119.183C76.6791 114.284 74.1068 107.751 74.1068 99.5849C74.1068 95.7877 74.8418 92.113 76.3116 88.6424C77.7815 85.1718 80.068 82.1096 83.1711 79.4964C86.2742 76.8833 90.2347 74.8009 95.0935 73.2902C99.9523 71.7795 105.669 71.0037 112.324 71.0037H160.993V94.6853H109.874C106.608 94.6853 104.444 95.1753 103.341 96.1552C102.239 97.1351 101.708 98.2375 101.708 99.4216C101.708 100.728 102.198 101.871 103.178 102.851C104.158 103.831 105.832 104.525 108.241 104.975L132.412 109.711C144.376 112.12 152.95 115.672 158.135 120.408C163.321 125.145 165.893 131.433 165.893 139.272C165.893 148.091 162.545 155.237 155.849 160.749C149.153 166.261 138.986 168.996 125.39 168.996H77.3732V145.315H130.616C134.086 145.315 136.373 144.825 137.394 143.845C138.414 142.865 138.945 141.599 138.945 140.089C138.945 138.455 138.21 137.271 136.74 136.496C135.27 135.72 133.351 135.148 130.942 134.699Z" fill="white"/>
</svg>
