<svg width="240" height="240" viewBox="0 0 240 240" fill="none" xmlns="http://www.w3.org/2000/svg">
<path d="M120 240C186.274 240 240 186.274 240 120C240 53.7258 186.274 0 120 0C53.7256 0 -0.000244141 53.7258 -0.000244141 120C-0.000244141 186.274 53.7256 240 120 240Z" fill="#0C0C0C"/>
<path d="M120 224.199C177.547 224.199 224.198 177.547 224.198 120C224.198 62.4526 177.547 15.8013 120 15.8013C62.4524 15.8013 15.8011 62.4526 15.8011 120C15.8011 177.547 62.4524 224.199 120 224.199Z" fill="#296284"/>
<path d="M93.9501 9.67676H146.58L93.9501 230.201H146.58L93.9501 9.67676Z" fill="#0C0C0C"/>
<path d="M120 199.619C163.972 199.619 199.618 163.972 199.618 120C199.618 76.0277 163.972 40.3811 120 40.3811C76.0274 40.3811 40.3808 76.0277 40.3808 120C40.3808 163.972 76.0274 199.619 120 199.619Z" fill="#0C0C0C"/>
<path d="M81.2927 87.8258L89.7037 143.763C89.7853 144.416 89.9486 144.988 90.2753 145.437C90.6019 145.886 91.0919 146.131 91.7452 146.131C92.3168 146.131 92.7659 145.927 93.0517 145.478C93.3376 145.07 93.5417 144.539 93.5825 143.967L99.8704 106.812C100.932 100.728 103.055 95.8693 106.281 92.1538C109.506 88.4791 114.243 86.6009 120.449 86.6009C126.737 86.6009 131.269 88.4791 134.127 92.1946C136.985 95.9102 138.904 100.769 139.966 106.689L146.253 143.845C146.376 144.58 146.621 145.111 146.947 145.519C147.274 145.927 147.682 146.09 148.213 146.09C149.071 146.09 149.642 145.846 149.928 145.396C150.214 144.947 150.418 144.335 150.459 143.641L158.707 87.785H178.305L168.097 144.621C167.036 150.378 164.994 154.746 161.973 157.768C158.952 160.789 154.624 162.259 148.989 162.259C142.701 162.259 137.842 160.585 134.372 157.278C130.901 153.93 128.737 149.439 127.798 143.763L121.429 105.138C121.347 104.566 121.184 104.076 120.939 103.75C120.694 103.423 120.285 103.26 119.755 103.26C119.224 103.26 118.856 103.423 118.571 103.75C118.326 104.076 118.162 104.525 118.081 105.138L111.507 143.926C110.527 149.602 108.486 154.093 105.382 157.36C102.279 160.626 97.7472 162.259 91.8268 162.259C85.539 162.259 80.8435 160.463 77.6588 156.91C74.474 153.358 72.4325 148.826 71.4526 143.355L61.6534 87.785H81.2927V87.8258Z" fill="white"/>
</svg>
