<svg width="64" height="64" viewBox="0 0 64 64" fill="none" xmlns="http://www.w3.org/2000/svg">
<g clip-path="url(#clip0_765_1346)">
<path d="M0 0V26H11.5618V0H0ZM8.40093 23.8294C8.19908 23.8294 8.00177 23.7687 7.83394 23.6549C7.66612 23.5411 7.53531 23.3794 7.45807 23.1902C7.38083 23.001 7.36062 22.7929 7.39999 22.592C7.43937 22.3912 7.53657 22.2067 7.67929 22.0619C7.82202 21.9171 8.00386 21.8184 8.20183 21.7785C8.3998 21.7385 8.60499 21.759 8.79147 21.8374C8.97795 21.9158 9.13734 22.0485 9.24948 22.2188C9.36162 22.389 9.42147 22.5892 9.42147 22.794C9.42147 23.0686 9.31395 23.332 9.12256 23.5262C8.93117 23.7203 8.67159 23.8294 8.40093 23.8294ZM10.0709 6.02418H1.47608V4.51814H10.07V6.02418H10.0709ZM10.0709 3.01209H1.47608V1.50605H10.07V3.01209H10.0709ZM24.2657 20.7561H31.0477V24.494H34.9202V26H20.3951V24.494H24.2676V20.7561H24.2657ZM13.3181 0V19.2501H42V0H13.3172H13.3181ZM40.5156 17.744H14.8016V1.50605H40.5156V17.744Z" fill="black"/>
<path fill-rule="evenodd" clip-rule="evenodd" d="M62.7927 50.9078C61.2598 42.4846 57.8326 40 56.0094 40C53.1644 40 52.4345 42.081 46.3794 42.1511C40.3243 42.081 39.5944 40 36.7493 40C34.9262 40 31.4972 42.4846 29.9643 50.9078C29.0902 55.7162 28.1412 62.8946 30.4023 63.7564C33.2161 64.8286 34.1702 62.1474 37.2603 59.8817C40.3973 57.5852 41.9024 57.0449 46.3794 57.0449C50.8564 57.0449 52.3615 57.5852 55.4985 59.8817C58.5886 62.1457 59.5427 64.8286 62.3565 63.7564C64.6176 62.8946 63.6686 55.7179 62.7927 50.9078ZM39.4275 52.0005C38.5057 52.0005 37.6216 51.6402 36.9697 50.9988C36.3178 50.3574 35.9516 49.4876 35.9516 48.5806C35.9516 47.6735 36.3178 46.8037 36.9697 46.1623C37.6216 45.521 38.5057 45.1607 39.4275 45.1607C40.3494 45.1607 41.2335 45.521 41.8854 46.1623C42.5373 46.8037 42.9035 47.6735 42.9035 48.5806C42.9035 49.4876 42.5373 50.3574 41.8854 50.9988C41.2335 51.6402 40.3494 52.0005 39.4275 52.0005ZM51.5933 52.0005C51.1323 52.0005 50.6903 51.8203 50.3644 51.4996C50.0384 51.179 49.8553 50.744 49.8553 50.2905C49.8553 49.837 50.0384 49.4021 50.3644 49.0814C50.6903 48.7607 51.1323 48.5806 51.5933 48.5806C52.0542 48.5806 52.4963 48.7607 52.8222 49.0814C53.1481 49.4021 53.3312 49.837 53.3312 50.2905C53.3312 50.744 53.1481 51.179 52.8222 51.4996C52.4963 51.8203 52.0542 52.0005 51.5933 52.0005ZM55.0692 48.5806C54.6083 48.5806 54.1662 48.4004 53.8403 48.0797C53.5143 47.759 53.3312 47.3241 53.3312 46.8706C53.3312 46.4171 53.5143 45.9822 53.8403 45.6615C54.1662 45.3408 54.6083 45.1607 55.0692 45.1607C55.5301 45.1607 55.9722 45.3408 56.2981 45.6615C56.6241 45.9822 56.8072 46.4171 56.8072 46.8706C56.8072 47.3241 56.6241 47.759 56.2981 48.0797C55.9722 48.4004 55.5301 48.5806 55.0692 48.5806Z" fill="black"/>
<path fill-rule="evenodd" clip-rule="evenodd" d="M3.86301 43.8326C3.86301 43.8326 5.22547 36.4403 10.3877 30.9999C11.6261 39.701 14.027 43.0001 14.027 43.0001L9.7112 41.5425C9.97772 43.7862 10.7108 45.9599 12.1263 47.7909C13.7903 49.9432 16.4703 51.7167 20.6967 52.5328L20.3176 54.4965C15.6912 53.6032 12.5508 51.6098 10.5441 49.0142C8.73078 46.6688 7.86493 44.4573 7.62814 41.7532L3.86301 43.8326Z" fill="black"/>
<path fill-rule="evenodd" clip-rule="evenodd" d="M63.0108 22.8385C63.0108 22.8385 61.6486 30.2309 56.4866 35.6714C55.2479 26.9704 52.8468 23.6714 52.8468 23.6714L57.1627 25.1288C56.8961 22.8851 56.163 20.7114 54.7473 18.8805C53.0832 16.7283 50.4032 14.9549 46.1767 14.1389L46.5558 12.1752C51.1822 13.0684 54.3227 15.0616 56.3295 17.6571C58.1429 20.0025 59.0089 22.2139 59.2458 24.918L63.0108 22.8385Z" fill="black"/>
</g>
<defs>
<clipPath id="clip0_765_1346">
<rect width="64" height="64" fill="white"/>
</clipPath>
</defs>
</svg>
