<svg width="64" height="64" viewBox="0 0 64 64" fill="none" xmlns="http://www.w3.org/2000/svg">
<path d="M0 12.4082V51.5919H17.618V12.4082H0ZM12.8014 48.3207C12.4938 48.3207 12.1932 48.2291 11.9374 48.0577C11.6817 47.8862 11.4824 47.6425 11.3647 47.3574C11.247 47.0723 11.2162 46.7585 11.2762 46.4558C11.3362 46.1531 11.4843 45.8751 11.7018 45.6569C11.9193 45.4386 12.1964 45.29 12.498 45.2298C12.7997 45.1696 13.1124 45.2005 13.3965 45.3186C13.6807 45.4367 13.9236 45.6367 14.0944 45.8933C14.2653 46.1499 14.3565 46.4516 14.3565 46.7602C14.3565 47.1741 14.1927 47.571 13.901 47.8636C13.6094 48.1563 13.2139 48.3207 12.8014 48.3207ZM15.3461 21.487H2.24926V19.2173H15.3447V21.487H15.3461ZM15.3461 16.9476H2.24926V14.6779H15.3447V16.9476H15.3461ZM36.9764 43.689H47.3108V49.3222H53.2118V51.5919H31.0782V49.3222H36.9792V43.689H36.9764ZM20.2942 12.4082V41.4193H64V12.4082H20.2928H20.2942ZM61.738 39.1496H22.5548V14.6779H61.738V39.1496Z" fill="black"/>
</svg>
