<svg width="64" height="64" viewBox="0 0 64 64" fill="none" xmlns="http://www.w3.org/2000/svg">
<g clip-path="url(#clip0_374_1407)">
<path d="M63.4324 45.804C62.1804 47.384 59.1164 48.508 59.1164 48.508L36.3324 56.692V50.656L53.1004 44.684C55.0044 44.004 55.2964 43.036 53.7484 42.532C52.2044 42.024 49.4084 42.172 47.5084 42.852L36.3324 46.788V40.524L36.9764 40.308C36.9764 40.308 40.2044 39.164 44.7444 38.66C49.2844 38.16 54.8444 38.728 59.2084 40.38C64.1284 41.94 64.6804 44.228 63.4324 45.804ZM38.5004 35.532V20.092C38.5004 18.28 38.1684 16.612 36.4684 16.14C35.1644 15.72 34.3564 16.932 34.3564 18.74V57.396L23.9324 54.088V8C28.3644 8.824 34.8204 10.768 38.2924 11.94C47.1204 14.968 50.1124 18.74 50.1124 27.24C50.1124 35.524 45.0004 38.664 38.5004 35.528V35.532ZM4.80441 50.032C-0.243587 48.6 -1.08359 45.64 1.21641 43.936C3.34441 42.36 6.96041 41.176 6.96041 41.176L21.9084 35.856V41.916L11.1484 45.768C9.25241 46.448 8.96041 47.412 10.5044 47.92C12.0484 48.424 14.8444 48.28 16.7444 47.6L21.9044 45.724V51.148L20.8764 51.32C15.4933 52.1915 9.9792 51.7483 4.80441 50.028V50.032Z" fill="black"/>
</g>
<defs>
<clipPath id="clip0_374_1407">
<rect width="64" height="64" fill="white"/>
</clipPath>
</defs>
</svg>
