<svg width="64" height="64" viewBox="0 0 64 64" fill="none" xmlns="http://www.w3.org/2000/svg">
<g clip-path="url(#clip0_374_1408)">
<path d="M1.316 41.332C3.32316 47.8938 7.38393 53.6378 12.9005 57.7185C18.4171 61.7993 25.0981 64.0011 31.96 64C49.656 64 64 49.672 64 32C64 14.328 49.656 2.39914e-06 31.964 2.39914e-06C23.8411 -0.00313993 16.0205 3.08064 10.0858 8.62691C4.15114 14.1732 0.545856 21.7675 0 29.872L0.012 29.896L17.228 36.972C18.7807 35.944 20.6197 35.4356 22.48 35.52L30.32 24.144L30.316 23.984C30.3192 20.7575 31.6021 17.6639 33.8832 15.382C36.1643 13.1001 39.2575 11.8162 42.484 11.812C45.7105 11.8162 48.8037 13.1001 51.0848 15.382C53.366 17.6639 54.6488 20.7575 54.652 23.984C54.6508 25.6053 54.3261 27.2101 53.6969 28.7043C53.0677 30.1986 52.1468 31.5523 50.9879 32.6862C49.8291 33.8201 48.4556 34.7114 46.948 35.3079C45.4404 35.9044 43.829 36.1941 42.208 36.16L30.992 44.16C31.03 45.6419 30.697 47.1097 30.0232 48.4301C29.3494 49.7505 28.3562 50.8814 27.1339 51.7201C25.9116 52.5588 24.4991 53.0787 23.0247 53.2323C21.5504 53.386 20.061 53.1686 18.692 52.6C17.3781 52.0525 16.2153 51.1967 15.3018 50.1051C14.3884 49.0134 13.7512 47.7179 13.444 46.328L1.32 41.332H1.316Z" fill="black"/>
<path d="M19.4723 50.732C21.1389 51.3681 22.9876 51.3301 24.6266 50.6259C26.2656 49.9218 27.5658 48.6069 28.2515 46.9602C28.9373 45.3135 28.9546 43.4644 28.2999 41.8051C27.6451 40.1457 26.3698 38.8067 24.7443 38.072C23.1327 37.3995 21.3245 37.3709 19.6923 37.992L23.7843 39.688C24.3963 39.9427 24.9521 40.3155 25.42 40.7851C25.8879 41.2547 26.2587 41.8118 26.5112 42.4246C26.7638 43.0375 26.8932 43.6941 26.892 44.357C26.8908 45.0199 26.7591 45.676 26.5043 46.288C26.2496 46.8999 25.8768 47.4557 25.4072 47.9236C24.9377 48.3915 24.3805 48.7623 23.7677 49.0149C23.1548 49.2675 22.4982 49.3968 21.8353 49.3957C21.1724 49.3945 20.5163 49.2627 19.9043 49.008L15.9443 47.368C16.665 48.8853 17.9217 50.0862 19.4723 50.732ZM34.3763 23.984C34.3774 26.1348 35.2317 28.1973 36.7518 29.7189C38.2719 31.2404 40.3336 32.0968 42.4843 32.1C44.6351 32.0968 46.6968 31.2404 48.2169 29.7189C49.737 28.1973 50.5913 26.1348 50.5923 23.984C50.5892 21.8346 49.7339 19.7741 48.2141 18.2543C46.6942 16.7344 44.6337 15.8792 42.4843 15.876C40.3349 15.8792 38.2745 16.7344 36.7546 18.2543C35.2348 19.7741 34.3795 21.8346 34.3763 23.984ZM42.4963 17.876C43.2969 17.8765 44.0895 18.0347 44.8289 18.3415C45.5683 18.6484 46.24 19.0978 46.8057 19.6643C47.3714 20.2307 47.82 20.903 48.1258 21.6428C48.4317 22.3826 48.5889 23.1754 48.5883 23.976C48.5878 24.7765 48.4296 25.5691 48.1228 26.3085C47.8159 27.0479 47.3665 27.7196 46.8 28.2853C46.2336 28.851 45.5613 29.2996 44.8215 29.6055C44.0817 29.9113 43.2889 30.0685 42.4883 30.068C40.8716 30.0669 39.3215 29.4236 38.179 28.2797C37.0365 27.1357 36.3953 25.5847 36.3963 23.968C36.3974 22.3512 37.0407 20.8011 38.1846 19.6586C39.3286 18.5162 40.8796 17.8749 42.4963 17.876Z" fill="black"/>
</g>
<defs>
<clipPath id="clip0_374_1408">
<rect width="64" height="64" fill="white"/>
</clipPath>
</defs>
</svg>
