<svg width="64" height="64" viewBox="0 0 64 64" fill="none" xmlns="http://www.w3.org/2000/svg">
<g clip-path="url(#clip0_374_1406)">
<path d="M28.8083 63.867C23.7381 63.3445 18.8665 61.6164 14.6003 58.827C11.0083 56.487 10.1963 55.523 10.1963 53.603C10.1963 49.743 14.4443 42.979 21.7123 35.271C25.8363 30.891 31.5883 25.759 32.2083 25.899C33.4163 26.171 43.0803 35.591 46.6963 40.023C52.4163 47.035 55.0483 52.779 53.7123 55.339C52.6963 57.283 46.3923 61.087 41.7643 62.547C37.9483 63.751 32.9363 64.263 28.8083 63.867ZM5.34433 49.587C2.35633 45.011 0.848334 40.507 0.120334 33.987C-0.119666 31.831 -0.0316659 30.603 0.668334 26.187C1.54033 20.679 4.67633 14.307 8.44833 10.387C10.0523 8.71904 10.1963 8.67904 12.1523 9.33504C14.5323 10.135 17.0723 11.887 21.0043 15.447L23.3003 17.523L22.0483 19.063C16.2243 26.211 10.0803 36.343 7.76033 42.611C6.50033 46.019 5.99233 49.439 6.53633 50.863C6.90033 51.823 6.56433 51.463 5.33633 49.587H5.34433ZM57.7483 50.367C58.0443 48.927 57.6723 46.287 56.7963 43.619C54.9043 37.847 48.5763 27.107 42.7643 19.807L40.9363 17.507L42.9123 15.691C45.4963 13.319 47.2923 11.899 49.2323 10.691C50.7563 9.74304 52.9403 8.89904 53.8763 8.89904C54.4563 8.89904 56.4923 11.011 58.1363 13.315C60.752 17.0428 62.5799 21.2648 63.5083 25.723C64.1203 28.635 64.1723 34.867 63.6043 37.771C63.0712 40.372 62.2668 42.9099 61.2043 45.343C60.4883 46.915 58.7083 49.967 57.9243 50.959C57.5243 51.471 57.5203 51.467 57.7483 50.367ZM29.3403 7.80704C26.6603 6.44704 22.5243 4.98704 20.2363 4.59504C19.2317 4.44541 18.2155 4.38784 17.2003 4.42304C15.3163 4.51904 15.4003 4.42304 18.4243 2.99104C20.7949 1.85259 23.3002 1.01928 25.8803 0.51104C29.0803 -0.16496 35.1043 -0.16896 38.2563 0.49104C41.6563 1.21104 45.6683 2.69904 47.9283 4.09104L48.6003 4.50304L47.0603 4.42304C43.9963 4.27104 39.5403 5.50304 34.7483 7.83504C33.3043 8.53904 32.0443 9.09904 31.9523 9.08304C31.0679 8.68371 30.1995 8.25819 29.3403 7.80704Z" fill="black"/>
</g>
<defs>
<clipPath id="clip0_374_1406">
<rect width="64" height="64" fill="white"/>
</clipPath>
</defs>
</svg>
