<svg width="200" height="24" viewBox="0 0 200 24" fill="none" xmlns="http://www.w3.org/2000/svg">
<path d="M102.625 0V1.76607V3.53213L111.691 3.54825L120.757 3.56429L121.341 3.76615C122.721 4.24331 123.75 5.15415 124.356 6.43537C124.742 7.25342 124.829 7.66346 124.825 8.64848C124.822 9.38194 124.802 9.55236 124.659 10.0219C124.227 11.4446 123.332 12.508 122.012 13.167C120.911 13.7165 121.118 13.7011 114.868 13.7019L109.458 13.7026V15.4373V17.1719H117.241H125.023L125.158 17.6626C125.407 18.5703 125.786 19.4134 126.26 20.1189L126.53 20.5214H116.316H106.102V17.6778C106.102 15.311 106.118 14.7569 106.197 14.3735C106.579 12.5292 107.968 11.0773 109.908 10.4959C110.241 10.396 110.68 10.3867 115.887 10.3686L121.506 10.349V8.61647V6.88399H112.066H102.625V8.61857V10.3532H104.293C102.894 12.2237 102.647 13.8786 102.621 15.6242V23.9907H104.849H114.641H126.661V22.3443V20.6979L127.022 21.1166C128.254 22.5456 130.152 23.59 132.083 23.9026C132.885 24.0325 144.291 24.0325 145.093 23.9026C146.228 23.719 147.533 23.2145 148.408 22.6217C148.608 22.4864 148.786 22.3757 148.805 22.3757C148.823 22.3757 148.838 22.7391 148.838 23.1832V23.9907H160.855H172.873V22.3537V20.7167L173.637 21.473C174.723 22.5477 175.643 23.1234 176.979 23.5645C178.302 24.001 178.112 23.9907 184.833 23.9907C191.422 23.9907 191.29 23.997 192.496 23.626C193.868 23.2042 194.947 22.5463 196.013 21.4826C197.333 20.1655 198.126 18.65 198.435 16.8501C198.571 16.0637 198.571 7.99234 198.435 7.20591C198.126 5.406 197.333 3.89042 196.013 2.57334C194.694 1.25667 193.224 0.489363 191.364 0.145998C190.807 0.0431331 190.348 0.0353657 184.831 0.0353657C178.167 0.0353657 178.401 0.0220075 177.002 0.48398C175.609 0.943787 174.733 1.49309 173.621 2.60474L172.84 3.38498L172.092 2.6321C170.977 1.50946 169.93 0.863561 168.521 0.429786C167.168 0.013326 167.766 0.0353657 157.829 0.0353657H148.868L148.851 0.857796C148.842 1.31013 148.82 1.68022 148.803 1.68022C148.786 1.68022 148.608 1.56957 148.408 1.43429C147.887 1.08112 146.798 0.575192 146.171 0.39516C144.894 0.0281391 145.047 0.0353823 138.588 0.035436C132.13 0.035436 132.283 0.0282888 131.005 0.39516C130.298 0.598468 129.256 1.10114 128.569 1.57064C128.026 1.94173 127.159 2.73754 126.789 3.20417L126.601 3.44209L126.412 3.20417C126.042 2.73754 125.175 1.94173 124.632 1.57064C123.946 1.10139 122.904 0.598475 122.197 0.395455C120.907 0.0248843 121.424 0.0431109 111.601 0.0205945L102.625 0ZM158.683 3.53483C166.454 3.53525 166.683 3.53847 167.168 3.65454C168.124 3.88322 168.953 4.35708 169.643 5.06935C170.321 5.76849 170.733 6.51221 170.955 7.4332C171.103 8.05183 171.114 9.03254 170.98 9.68237C170.598 11.5266 169.208 12.9785 167.269 13.5599C166.936 13.6598 166.497 13.6692 161.29 13.6873L155.671 13.7067V15.4391V17.1714L163.47 17.1866L171.27 17.2018L171.433 17.77C171.693 18.6746 172.003 19.3638 172.49 20.1177L172.751 20.5214H162.529H152.307L152.328 17.5457L152.348 14.5699L152.515 14.0339C152.958 12.6013 153.847 11.5467 155.165 10.8887C156.266 10.3393 156.059 10.3547 162.309 10.3538L167.718 10.3531V8.61856V6.88398H159.938H152.158L151.995 6.30538C151.785 5.55711 151.421 4.73311 151.017 4.09204C150.84 3.81114 150.696 3.57072 150.696 3.55783C150.696 3.54493 154.29 3.53454 158.683 3.53483ZM188.053 3.54135C190.569 3.54066 190.759 3.56417 191.131 3.65221C192.095 3.88072 192.925 4.35336 193.619 5.06935C194.296 5.76849 194.709 6.51221 194.93 7.4332C195.043 7.90483 195.049 8.14172 195.05 11.9856C195.05 15.4529 195.037 16.1073 194.955 16.5015C194.565 18.3968 193.052 19.9447 191.143 20.4013C190.662 20.5165 184.803 20.5204 179.161 20.5149C177.816 20.4542 174.959 19.0549 174.642 15.9182L174.624 12.1845C174.601 7.29569 174.591 7.45062 175.112 6.37556C175.612 5.34179 176.398 4.55755 177.448 4.04364C178.493 3.53179 177.968 3.56781 184.669 3.54862C186.118 3.54447 187.215 3.54159 188.053 3.54135ZM132.445 3.56429H138.588H144.732L145.316 3.76615C146.697 4.24331 147.726 5.15415 148.331 6.43537C148.826 7.48242 148.808 7.26882 148.808 12.0279C148.808 16.787 148.826 16.5734 148.331 17.6205C147.726 18.9017 146.697 19.8125 145.316 20.2897L144.732 20.4915L138.738 20.5026C133.929 20.5114 132.673 20.4978 132.385 20.4338C130.808 20.0838 129.529 19.0678 128.845 17.6205C128.351 16.5734 128.369 16.787 128.369 12.0279C128.369 7.26882 128.351 7.48242 128.845 6.43537C129.451 5.15415 130.48 4.24331 131.861 3.76615L132.445 3.56429ZM131.695 6.88399V12.0279V17.1719H138.588H145.481V12.0279V6.88399H138.588H131.695ZM177.968 6.88399V12.0279V17.1719H184.831H191.694V12.0279V6.88399H184.831H177.968ZM135.172 10.3531H138.588H142.005V12.0279V13.7026H138.588H135.172V12.0279V10.3531ZM181.444 10.3531H184.831H188.217V12.0279V13.7026H184.831H181.444V12.0279V10.3531Z" fill="black"/>
<path fill-rule="evenodd" clip-rule="evenodd" d="M71.9788 23.9999L96.003 0L81.0817 4.8017e-05L57.0575 24L71.9788 23.9999Z" fill="black"/>
<path fill-rule="evenodd" clip-rule="evenodd" d="M0 24L17.9772 6.04092C21.9976 2.02461 26.8903 0 32.576 0H79.0172L70.0081 8.99999H34.9359C30.8009 8.99999 27.2426 10.4725 24.3186 13.3934L13.7013 24H0Z" fill="black"/>
<path fill-rule="evenodd" clip-rule="evenodd" d="M16.0472 23.9998L26.2625 13.7949C28.4554 11.6042 31.1242 10.4998 34.2255 10.4998L68.5064 10.4999L60.1542 18.8436H36.6604C34.748 18.8436 33.1022 19.5246 31.7499 20.8755L28.6224 23.9998H16.0472Z" fill="black"/>
<path fill-rule="evenodd" clip-rule="evenodd" d="M78.1768 21.4782V20.9654H80.668V21.4782H79.7425V24H79.1066V21.4782H78.1768Z" fill="black"/>
<path fill-rule="evenodd" clip-rule="evenodd" d="M84.0971 20.9654V24H83.5094L83.5072 21.611L82.8881 24H82.277L81.6608 21.611L81.6585 24H81.0708V20.9654H82.0233L82.5862 23.0351L83.1425 20.9654H84.0971Z" fill="black"/>
</svg>
