<svg width="200" height="24" viewBox="0 0 200 24" fill="none" xmlns="http://www.w3.org/2000/svg">
<path d="M102.631 0V1.71655V3.43311L112.417 3.44217L122.204 3.45117L122.501 3.5209C123.519 3.76034 124.322 4.183 125.014 4.84326C125.83 5.62143 126.346 6.57611 126.554 7.69389C126.627 8.08271 126.627 9.05274 126.554 9.44155C126.346 10.5593 125.83 11.514 125.014 12.2922C124.322 12.9526 123.517 13.3761 122.501 13.6142L122.204 13.6838L115.838 13.6933L109.473 13.7027V15.4185V17.1342H118.138H126.804L126.842 17.3293C126.9 17.6221 127.079 18.1974 127.239 18.601C127.44 19.1104 127.72 19.6403 128.049 20.1376L128.333 20.5671H117.183H106.032L106.045 17.7194C106.057 14.9861 106.06 14.8579 106.123 14.528C106.327 13.4581 106.802 12.5577 107.565 11.7958C108.453 10.9088 109.508 10.4164 110.769 10.3002C110.988 10.2801 113.316 10.2686 117.15 10.2686H123.188V8.56769V6.86688H112.909H102.631V8.56769V10.2686H103.474C103.938 10.2686 104.318 10.2738 104.318 10.2801C104.318 10.2865 104.2 10.4688 104.055 10.6853C103.466 11.5663 103.028 12.6095 102.807 13.6558C102.63 14.4955 102.631 14.4753 102.631 19.4358L102.631 23.9999H115.486H128.342L128.35 22.2971L128.358 20.5943L128.598 20.8851C128.874 21.2201 129.467 21.8068 129.817 22.0898C130.368 22.5364 131.118 22.9902 131.769 23.2719C132.721 23.6836 133.634 23.9005 134.7 23.9681C135.357 24.0097 145.299 24.0103 145.983 23.9688C147.741 23.862 149.381 23.2439 150.774 22.1632C151.124 21.8917 151.795 21.236 152.087 20.88L152.321 20.5956L152.34 21.0885C152.35 21.3596 152.361 22.1256 152.363 22.7907L152.367 24L171.245 23.9994C183.644 23.999 190.284 23.9881 190.592 23.9673C192.79 23.8192 194.706 22.9325 196.233 21.3559C197.505 20.0439 198.281 18.4461 198.564 16.5568C198.616 16.2105 198.621 15.8658 198.621 11.9848V7.78732L198.55 7.3435C198.395 6.37617 198.144 5.58282 197.728 4.74722C196.55 2.38263 194.342 0.69029 191.763 0.175243C190.957 0.0142961 191.223 0.0210844 185.187 0.00885205C178.868 -0.00396068 178.871 -0.00404788 177.908 0.206438C177.032 0.397699 175.993 0.820841 175.26 1.2854C173.026 2.70045 171.635 4.87186 171.264 7.5221C171.201 7.96944 171.211 9.22157 171.28 9.69104C171.483 11.0697 172.006 12.3848 172.779 13.4594L172.953 13.7012H171.222H169.49L169.48 9.91727C169.47 6.50434 169.464 6.1027 169.415 5.82123C169.153 4.30928 168.511 3.04763 167.474 2.01245C166.345 0.884325 164.871 0.187837 163.289 0.0341218C163.063 0.0122081 161.151 0.00097864 157.642 0.00097864H152.337L152.329 1.70576L152.321 3.41061L152.241 3.29881C152.069 3.05792 151.586 2.53524 151.277 2.25592C149.839 0.957594 148.121 0.203562 146.213 0.0332981C145.723 -0.0103493 134.957 -0.0104146 134.466 0.0332981C132.184 0.236494 130.047 1.3516 128.608 3.09065C128.473 3.25371 128.352 3.38714 128.339 3.38715C128.327 3.38715 128.204 3.25371 128.068 3.09065C127.732 2.69027 127.085 2.06754 126.695 1.7707C125.527 0.881173 124.262 0.344844 122.727 0.0873558L122.329 0.0204717L112.48 0.0102691L102.631 0ZM136.903 3.43753C137.769 3.43666 138.928 3.43912 140.496 3.44181L146.197 3.45156L146.51 3.52272C148.59 3.99665 150.075 5.48464 150.53 7.55346L150.602 7.88114V12.0006V16.12L150.531 16.4399C150.179 18.0285 149.194 19.3103 147.791 20.0064C147.159 20.3194 146.687 20.4598 146.01 20.5353C145.661 20.5742 134.963 20.5712 134.622 20.5321C133.43 20.3953 132.315 19.8418 131.486 18.9757C130.808 18.2668 130.366 17.4264 130.148 16.4302C130.08 16.1222 130.08 16.0929 130.069 12.141C130.058 7.76431 130.054 7.85912 130.248 7.16871C130.491 6.30425 130.947 5.54663 131.613 4.89817C132.263 4.26482 132.964 3.85557 133.8 3.62118C134.328 3.47296 134.302 3.44016 136.903 3.43753ZM155.481 3.44001C156.15 3.43986 156.919 3.4403 157.78 3.44181L163.193 3.45088L163.443 3.51837C164.372 3.76934 165.081 4.2977 165.574 5.10655C165.778 5.44247 165.905 5.76953 165.987 6.172C166.05 6.48206 166.051 6.56273 166.051 11.8104V17.1343H178.907H191.763V15.4185V13.7026L185.413 13.6933L179.063 13.684L178.761 13.6145C178.065 13.4545 177.446 13.1944 176.923 12.8425C175.786 12.0766 175.031 10.9529 174.731 9.58193C174.668 9.29404 174.659 9.16901 174.66 8.55209C174.66 7.89278 174.666 7.82709 174.748 7.47546C175.063 6.13159 175.806 5.04548 176.923 4.2928C177.454 3.93534 178.082 3.67375 178.777 3.51986L179.095 3.4496H184.921H190.748L191.065 3.51986C192.156 3.76116 192.998 4.22505 193.75 4.99878C194.369 5.63684 194.78 6.3426 195.012 7.1687C195.207 7.85981 195.203 7.76239 195.191 12.1566L195.181 16.1512L195.099 16.4945C194.86 17.4934 194.441 18.2781 193.774 18.9757C193.336 19.4341 192.901 19.7489 192.31 20.0368C191.724 20.3222 191.236 20.464 190.601 20.5338V20.5334C190.246 20.5724 152.356 20.582 152.373 20.5432C152.378 20.5302 152.493 20.3548 152.627 20.1534C153.166 19.3426 153.6 18.3527 153.808 17.4539L153.883 17.1341H158.249H162.615V12.0006V6.86711L158.25 6.85916L153.885 6.85128L153.858 6.72643C153.692 5.96953 153.357 5.08392 152.986 4.42297C152.813 4.11411 152.439 3.53679 152.395 3.50943C152.38 3.50023 152.367 3.47927 152.367 3.46279C152.367 3.4485 153.475 3.44062 155.481 3.44001ZM133.498 6.86689V12.0006V17.1343H140.355H147.213V12.0006V6.86689H140.355H133.498ZM178.017 6.86689V8.56769V10.2686H184.89H191.763V8.56769V6.86689H184.89H178.017ZM154.055 10.2682L156.624 10.2762L159.194 10.2842L159.202 11.9928L159.21 13.7014H156.632H154.055V11.9848V10.2682ZM143.776 10.2682V11.9848V13.7013H140.339H136.902L136.91 11.9927L136.918 10.2841L140.347 10.2761L143.776 10.2682Z" fill="black"/>
<path fill-rule="evenodd" clip-rule="evenodd" d="M71.9838 23.9999L96.0096 0L81.0873 4.8017e-05L57.0615 24L71.9838 23.9999Z" fill="black"/>
<path fill-rule="evenodd" clip-rule="evenodd" d="M0 24L17.9784 6.04092C21.9991 2.02461 26.8922 0 32.5783 0H79.0227L70.013 8.99999H34.9383C30.803 8.99999 27.2444 10.4725 24.3203 13.3934L13.7023 24H0Z" fill="black"/>
<path fill-rule="evenodd" clip-rule="evenodd" d="M16.0483 23.9998L26.2643 13.7949C28.4574 11.6042 31.1264 10.4998 34.2278 10.4998L68.5111 10.4999L60.1584 18.8436H36.6629C34.7504 18.8436 33.1045 19.5246 31.7521 20.8755L28.6244 23.9998H16.0483Z" fill="black"/>
<path fill-rule="evenodd" clip-rule="evenodd" d="M78.1822 21.4782V20.9654H80.6735V21.4782H79.7481V24H79.1121V21.4782H78.1822Z" fill="black"/>
<path fill-rule="evenodd" clip-rule="evenodd" d="M84.103 20.9654V24H83.5152L83.513 21.611L82.8938 24H82.2827L81.6664 21.611L81.6642 24H81.0765V20.9654H82.029L82.5919 23.0351L83.1482 20.9654H84.103Z" fill="black"/>
</svg>
