<svg width="200" height="24" viewBox="0 0 200 24" fill="none" xmlns="http://www.w3.org/2000/svg">
<path d="M133.626 17.1499H147.343V6.8499H133.626V17.1499ZM137.049 10.2748H143.895V13.6999H137.049V10.2748Z" fill="black"/>
<path d="M194.814 17.15V13.7251H192.94V6.85004C192.937 5.03417 192.215 3.29347 190.932 2.00944C189.649 0.725412 187.909 0.00280816 186.095 4.0454e-06H135.175C133.847 -0.00128945 132.536 0.307624 131.348 0.902181C130.159 1.49674 129.126 2.36054 128.33 3.42489C127.527 2.36202 126.488 1.49971 125.296 0.905512C124.104 0.311318 122.791 0.00138668 121.459 4.0454e-06H102.621V3.42489H121.459C122.818 3.43419 124.118 3.98088 125.076 4.94567C126.033 5.91049 126.571 7.2151 126.571 8.57488C126.571 9.93468 126.033 11.2393 125.076 12.2041C124.118 13.1689 122.818 13.7156 121.459 13.7249H109.467V17.15H126.781C127.031 18.3942 127.561 19.5652 128.33 20.5749H106.068V15.425C106.067 14.7484 106.2 14.0783 106.458 13.453C106.717 12.8277 107.096 12.2596 107.574 11.7811C108.052 11.3027 108.62 10.9234 109.244 10.665C109.87 10.4065 110.539 10.2739 111.215 10.2749H123.207V6.85004H102.621V10.2749H104.345C103.227 11.759 102.622 13.5666 102.621 15.425V24H128.33V20.5751C129.128 21.6374 130.162 22.4997 131.35 23.094C132.538 23.6884 133.847 23.9985 135.175 24H145.444C147.301 23.995 149.106 23.39 150.591 22.275V24H194.814V20.5751H154.014V15.425C154.013 14.7484 154.146 14.0783 154.404 13.4529C154.662 12.8276 155.041 12.2595 155.52 11.7811C155.998 11.3026 156.565 10.9233 157.19 10.6649C157.815 10.4064 158.485 10.2739 159.161 10.2749H171.153V6.85004H153.84C153.589 5.6058 153.059 4.43476 152.29 3.42514H169.43C170.789 3.43444 172.089 3.98113 173.046 4.94591C174.004 5.91073 174.542 7.21531 174.542 8.57512C174.542 9.9349 174.004 11.2395 173.046 12.2043C172.089 13.1691 170.789 13.7158 169.43 13.7251H157.438V17.15H186.095V6.85004H177.899C177.833 5.6329 177.454 4.4534 176.8 3.42514H186.069C186.519 3.42373 186.965 3.51137 187.381 3.68299C187.797 3.8546 188.175 4.10684 188.493 4.42514C188.811 4.74343 189.063 5.12157 189.235 5.53771C189.406 5.95387 189.494 6.39986 189.492 6.85004V17.1249H194.814V17.15ZM145.444 20.5751H135.175C134.499 20.5761 133.83 20.4435 133.205 20.185C132.58 19.9265 132.012 19.5472 131.534 19.0688C131.056 18.5904 130.677 18.0223 130.419 17.397C130.16 16.7717 130.028 16.1016 130.029 15.425V8.57498C130.028 7.89839 130.16 7.22825 130.419 6.60297C130.677 5.9777 131.056 5.40956 131.534 4.93115C132.012 4.4527 132.58 4.0734 133.205 3.81491C133.83 3.55646 134.499 3.42391 135.176 3.42489H145.444C146.121 3.42394 146.79 3.5565 147.415 3.81498C148.04 4.07347 148.608 4.45281 149.086 4.93122C149.564 5.40963 149.943 5.97777 150.201 6.60304C150.46 7.22828 150.592 7.89843 150.591 8.57498V15.425C150.592 16.1016 150.46 16.7718 150.201 17.397C149.943 18.0223 149.564 18.5904 149.086 19.0689C148.608 19.5473 148.04 19.9266 147.415 20.1851C146.79 20.4436 146.12 20.5761 145.444 20.5751ZM176.825 13.7251C177.455 12.6854 177.831 11.5122 177.924 10.3002H182.697V13.7251H176.825Z" fill="black"/>
<path d="M24.1832 13.6746L13.5515 23.9993H0L16.8709 7.22471C23.1349 1.02498 26.1548 0 36.8364 0H79.064L69.9042 8.99975H38.0591C30.0734 8.99975 28.3759 9.5997 24.1832 13.6741V13.6746ZM68.5313 10.4247H38.2337C30.1978 10.4247 28.9251 11.0497 25.2812 14.6995L15.9966 24H28.5756L31.5705 21C33.5429 19.0242 34.4406 18.825 38.4085 18.825H60.146L68.5313 10.4247ZM71.8 23.9993L95.8345 0H80.9101L56.9517 23.9993H71.8Z" fill="black"/>
</svg>
