<svg width="200" height="24" viewBox="0 0 200 24" fill="none" xmlns="http://www.w3.org/2000/svg">
<path d="M98.2186 17.5776V23.9922H129.439V16.8283H106.366V15.4674H120.87C126.269 15.4674 129.761 12.4091 129.761 7.66106C129.761 3.24949 125.909 0.0458984 120.61 0.0458984H98.2186V7.20996H121.965V8.5709H108.564C102.277 8.5709 98.2186 12.1109 98.2186 17.5776Z" fill="black"/>
<path d="M130.894 17.5776V23.9922H162.031L162.115 19.3208V16.8283H139.042V15.4674H153.546C158.945 15.4674 162.436 12.4091 162.436 7.66106C162.436 3.24949 158.585 0.0458984 153.286 0.0458984H130.894V7.20996H154.641V8.5709H141.24C134.953 8.5709 130.894 12.1109 130.894 17.5776Z" fill="black"/>
<path d="M78.1093 21.4233H79.0587V23.9619H79.5872V21.4233H80.5445V20.9722H78.1168V21.4233H78.1093ZM80.8736 23.9694H81.3714V21.6604H81.3792L82.2139 23.9694H82.6502L83.4849 21.6604H83.4928V23.9694H83.9905V20.9722H83.263L82.4587 23.3195H82.4512L81.624 20.9722H80.8815V23.9694H80.8736ZM24.2214 13.6553L13.5773 23.9694H0L16.893 7.2252C23.1722 1.01687 26.2049 0 36.9104 0H79.212L70.0302 8.97611H38.1203C30.1179 8.97611 28.4178 9.58776 24.2214 13.6553ZM68.6595 10.4058H38.3118C30.2559 10.4058 28.9924 11.0252 25.3394 14.6722L16.0275 23.9694H28.6172L31.6112 20.9799C33.5869 19.0073 34.4752 18.8162 38.4651 18.8162H60.2359L68.6595 10.4058ZM71.9447 23.9694L96.0131 0H81.0651L57.0578 23.9694H71.9447Z" fill="black"/>
</svg>
