<svg width="200" height="24" viewBox="0 0 200 24" fill="none" xmlns="http://www.w3.org/2000/svg">
<g clip-path="url(#clip0_74_1127)">
<path d="M117.219 17.5776V23.9922H148.439V16.8283H125.366V15.4674H139.87C145.269 15.4674 148.761 12.4091 148.761 7.66106C148.761 3.24949 144.909 0.0458984 139.61 0.0458984H117.219V7.20996H140.965V8.5709H127.564C121.277 8.5709 117.219 12.1109 117.219 17.5776Z" fill="black"/>
<path d="M149.894 17.5776V23.9922H181.031L181.115 19.3208V16.8283H158.042V15.4674H172.546C177.945 15.4674 181.436 12.4091 181.436 7.66106C181.436 3.24949 177.585 0.0458984 172.286 0.0458984H149.894V7.20996H173.641V8.5709H160.24C153.953 8.5709 149.894 12.1109 149.894 17.5776Z" fill="black"/>
<path d="M97.1093 21.4233H98.0587V23.9619H98.5872V21.4233H99.5445V20.9722H97.1168V21.4233H97.1093ZM99.8736 23.9694H100.371V21.6604H100.379L101.214 23.9694H101.65L102.485 21.6604H102.493V23.9694H102.991V20.9722H102.263L101.459 23.3195H101.451L100.624 20.9722H99.8815V23.9694H99.8736ZM43.2214 13.6553L32.5773 23.9694H19L35.893 7.2252C42.1722 1.01687 45.2049 0 55.9104 0H98.212L89.0302 8.97611H57.1203C49.1179 8.97611 47.4178 9.58776 43.2214 13.6553ZM87.6595 10.4058H57.3118C49.2559 10.4058 47.9924 11.0252 44.3394 14.6722L35.0275 23.9694H47.6172L50.6112 20.9799C52.5869 19.0073 53.4752 18.8162 57.4651 18.8162H79.2359L87.6595 10.4058ZM90.9447 23.9694L115.013 0H100.065L76.0578 23.9694H90.9447Z" fill="black"/>
</g>
<defs>
<clipPath id="clip0_74_1127">
<rect width="200" height="24" fill="white"/>
</clipPath>
</defs>
</svg>
