<svg width="200" height="24" viewBox="0 0 200 24" fill="none" xmlns="http://www.w3.org/2000/svg">
<path d="M43.2234 13.6969L32.5736 24H19L35.8849 7.26523C42.1496 1.07169 45.1923 0.0295444 55.9019 0.0295444H98.2054L89.0172 8.99237H57.0971C49.102 8.99237 47.4017 9.61769 43.1954 13.6675M87.6444 10.4218H57.3052C49.2506 10.4218 47.9978 11.0472 44.3283 14.6801L35.0209 23.9705H47.6099L50.5931 20.9929C52.5619 19.0276 53.457 18.8191 57.4542 18.8191H79.2317L87.6444 10.4218ZM90.9256 23.9705L115 0H100.054L76.0397 23.9705H90.9256Z" fill="black"/>
<path d="M117 23.9706V17.531C117 12.0453 121.113 8.52696 127.495 8.52696H141.076V7.15552H117V0H139.714C145.098 0 149 3.21992 149 7.63233C149 12.3727 145.461 15.4436 139.987 15.4436H125.287V16.8151H148.667V24H117.03L117 23.9706Z" fill="black"/>
<path d="M149 24V16.8238H172.233V15.4541H149V8.54595H172.233V7.17623H149V0H172.14C177.747 0 181 2.2928 181 6.31251C181 9.29015 179.606 11.2554 177.035 11.851L176.539 11.9701L177.035 12.119C179.978 12.923 181 15.4242 181 17.5084C181 21.6473 177.902 23.9997 172.481 23.9997L149 24Z" fill="black"/>
<path d="M101 24C100.151 24 99.4149 23.7728 98.8491 23.2728C98.2829 22.7727 98 22.2273 98 21.5001C98 20.7728 98.2829 20.2273 98.8491 19.7273C99.4149 19.2273 100.151 19 101 19C101.849 19 102.585 19.2273 103.151 19.7273C103.717 20.2273 104 20.8182 104 21.5001C104 22.1819 103.717 22.7727 103.151 23.2728C102.585 23.7275 101.906 24 101 24ZM99.1885 20C98.7357 20.4091 98.4528 20.9091 98.4528 21.5C98.4528 22.0909 98.6792 22.5909 99.1885 23.0002C99.6412 23.4091 100.264 23.6363 101 23.6363C101.736 23.6363 102.302 23.4091 102.811 23.0002C103.32 22.5909 103.547 22.0909 103.547 21.5C103.547 20.9091 103.32 20.4091 102.811 20C102.302 19.5909 101.736 19.3636 101 19.3636C100.264 19.3636 99.6981 19.5909 99.1885 20ZM100.32 21.8636V22.8637H99.7546V20.0909H100.943C101.396 20.0909 101.679 20.1363 101.906 20.2727C102.132 20.4091 102.245 20.6363 102.245 20.9545C102.245 21.4091 102.019 21.6818 101.623 21.7727L102.302 22.8637H101.736L101.056 21.8636H100.32ZM100.32 20.5V21.5H101.113C101.113 21.5 101.509 21.5 101.566 21.3636C101.679 21.2727 101.736 21.1818 101.736 21C101.736 20.8181 101.679 20.6818 101.566 20.6363C101.453 20.5454 101.226 20.5454 101 20.5454H100.377L100.32 20.5Z" fill="black"/>
</svg>
