<svg width="48" height="48" viewBox="0 0 48 48" fill="none" xmlns="http://www.w3.org/2000/svg">
<path d="M16.8936 3.6C16.8936 4.31201 16.6915 5.00804 16.3127 5.60005C15.934 6.19207 15.3957 6.65349 14.7658 6.92597C14.136 7.19844 13.443 7.26974 12.7744 7.13083C12.1058 6.99192 11.4916 6.64906 11.0095 6.14559C10.5275 5.64212 10.1992 5.00066 10.0662 4.30233C9.93324 3.604 10.0015 2.88016 10.2624 2.22234C10.5233 1.56453 10.965 1.00228 11.5319 0.606712C12.0987 0.211139 12.7651 1.94201e-06 13.4468 1.94201e-06C14.361 1.94201e-06 15.2377 0.379286 15.8841 1.05442C16.5305 1.72955 16.8936 2.64522 16.8936 3.6ZM34.1277 7.2C34.8094 7.2 35.4758 6.98887 36.0426 6.59329C36.6094 6.19772 37.0512 5.63548 37.3121 4.97766C37.573 4.31985 37.6412 3.59601 37.5082 2.89768C37.3752 2.19935 37.047 1.55789 36.5649 1.05442C36.0829 0.550948 35.4687 0.208081 34.8001 0.0691746C34.1315 -0.0697322 33.4384 0.00155983 32.8086 0.274035C32.1788 0.546511 31.6405 1.00793 31.2617 1.59995C30.883 2.19197 30.6809 2.88799 30.6809 3.6C30.6809 4.55478 31.044 5.47046 31.6904 6.14559C32.3368 6.82072 33.2135 7.2 34.1277 7.2ZM13.4468 20.4C12.7651 20.4 12.0987 20.6111 11.5319 21.0067C10.965 21.4023 10.5233 21.9645 10.2624 22.6223C10.0015 23.2802 9.93324 24.004 10.0662 24.7023C10.1992 25.4007 10.5275 26.0421 11.0095 26.5456C11.4916 27.0491 12.1058 27.3919 12.7744 27.5308C13.443 27.6697 14.136 27.5984 14.7658 27.326C15.3957 27.0535 15.934 26.5921 16.3127 26.0001C16.6915 25.408 16.8936 24.712 16.8936 24C16.8936 23.0452 16.5305 22.1295 15.8841 21.4544C15.2377 20.7793 14.361 20.4 13.4468 20.4ZM34.1277 20.4C33.4459 20.4 32.7795 20.6111 32.2127 21.0067C31.6459 21.4023 31.2041 21.9645 30.9432 22.6223C30.6823 23.2802 30.6141 24.004 30.7471 24.7023C30.8801 25.4007 31.2084 26.0421 31.6904 26.5456C32.1724 27.0491 32.7866 27.3919 33.4552 27.5308C34.1238 27.6697 34.8169 27.5984 35.4467 27.326C36.0765 27.0535 36.6148 26.5921 36.9936 26.0001C37.3723 25.408 37.5745 24.712 37.5745 24C37.5745 23.0452 37.2113 22.1295 36.5649 21.4544C35.9185 20.7793 35.0418 20.4 34.1277 20.4ZM13.4468 40.8C12.7651 40.8 12.0987 41.0111 11.5319 41.4067C10.965 41.8023 10.5233 42.3645 10.2624 43.0223C10.0015 43.6802 9.93324 44.404 10.0662 45.1023C10.1992 45.8007 10.5275 46.4421 11.0095 46.9456C11.4916 47.449 12.1058 47.7919 12.7744 47.9308C13.443 48.0697 14.136 47.9984 14.7658 47.726C15.3957 47.4535 15.934 46.9921 16.3127 46.4C16.6915 45.808 16.8936 45.112 16.8936 44.4C16.8936 43.4452 16.5305 42.5295 15.8841 41.8544C15.2377 41.1793 14.361 40.8 13.4468 40.8ZM34.1277 40.8C33.4459 40.8 32.7795 41.0111 32.2127 41.4067C31.6459 41.8023 31.2041 42.3645 30.9432 43.0223C30.6823 43.6802 30.6141 44.404 30.7471 45.1023C30.8801 45.8007 31.2084 46.4421 31.6904 46.9456C32.1724 47.449 32.7866 47.7919 33.4552 47.9308C34.1238 48.0697 34.8169 47.9984 35.4467 47.726C36.0765 47.4535 36.6148 46.9921 36.9936 46.4C37.3723 45.808 37.5745 45.112 37.5745 44.4C37.5745 43.4452 37.2113 42.5295 36.5649 41.8544C35.9185 41.1793 35.0418 40.8 34.1277 40.8Z" fill="#5C5C5C"/>
</svg>
