<svg width="64" height="64" viewBox="0 0 64 64" fill="none" xmlns="http://www.w3.org/2000/svg">
<path d="M37.3178 26.033V39.5453C37.3179 39.9832 37.4444 40.4119 37.6823 40.7813C37.9202 41.1508 38.2596 41.4456 38.661 41.6313C39.0624 41.817 39.5089 41.8858 39.9485 41.8298C40.388 41.7738 40.8023 41.5953 41.1428 41.315L63.1603 23.1941C64.2799 22.2724 64.2799 20.5764 63.1603 19.6547L41.1428 1.53373C40.8023 1.25351 40.388 1.07494 39.9485 1.01893C39.5089 0.962923 39.0624 1.0318 38.661 1.21748C38.2596 1.40317 37.9202 1.69799 37.6823 2.06741C37.4444 2.43684 37.3179 2.86558 37.3178 3.30343V16.8158H23.3236C17.1378 16.8158 11.2054 19.2435 6.83133 23.5649C2.4573 27.8863 0 33.7474 0 39.8587V62.9016H9.32945V39.8587C9.32945 36.1919 10.8038 32.6753 13.4282 30.0824C16.0527 27.4896 19.6121 26.033 23.3236 26.033H37.3178Z" fill="black"/>
</svg>
