<svg width="64" height="64" viewBox="0 0 64 64" fill="none" xmlns="http://www.w3.org/2000/svg">
<path fill-rule="evenodd" clip-rule="evenodd" d="M0 5.18919C0 3.42785 1.43269 2 3.2 2H49.6C57.7673 2 64 8.21163 64 16.3514C64 24.4911 57.7673 30.7027 49.6 30.7027H14.4C9.76731 30.7027 6.4 34.0586 6.4 38.6757C6.4 43.2927 9.76731 46.6486 14.4 46.6486H60.8C62.5673 46.6486 64 48.0765 64 49.8378C64 51.5992 62.5673 53.027 60.8 53.027H14.4C6.23269 53.027 0 46.8154 0 38.6757C0 30.536 6.23269 24.3243 14.4 24.3243H49.6C54.2327 24.3243 57.6 20.9684 57.6 16.3514C57.6 11.7343 54.2327 8.37838 49.6 8.37838H3.2C1.43269 8.37838 0 6.95053 0 5.18919Z" fill="black"/>
<path fill-rule="evenodd" clip-rule="evenodd" d="M50.5373 39.6098C51.7869 38.3643 53.8131 38.3643 55.0627 39.6098L63.0627 47.5827C64.3124 48.8282 64.3124 50.8475 63.0627 52.0929L55.0627 60.0659C53.8131 61.3114 51.7869 61.3114 50.5373 60.0659C49.2876 58.8205 49.2876 56.8012 50.5373 55.5557L56.2745 49.8378L50.5373 44.12C49.2876 42.8745 49.2876 40.8552 50.5373 39.6098Z" fill="black"/>
</svg>
