<svg width="64" height="64" viewBox="0 0 64 64" fill="none" xmlns="http://www.w3.org/2000/svg">
<path d="M0 56L15.4301 31.5932H27.511L45.3333 8V56H0Z" fill="black"/>
<path fill-rule="evenodd" clip-rule="evenodd" d="M55.9996 8.66663C56.6892 8.66663 57.3301 9.02187 57.6956 9.60663L63.0289 18.14C63.6144 19.0766 63.3296 20.3105 62.3929 20.896C61.4563 21.4814 60.2224 21.1966 59.637 20.26L57.9996 17.6402V46.3597L59.637 43.74C60.2224 42.8033 61.4563 42.5185 62.3929 43.104C63.3296 43.6894 63.6144 44.9233 63.0289 45.86L57.6956 54.3933C57.3301 54.9781 56.6892 55.3333 55.9996 55.3333C55.31 55.3333 54.6691 54.9781 54.3036 54.3933L48.9703 45.86C48.3849 44.9233 48.6696 43.6894 49.6063 43.104C50.543 42.5185 51.7769 42.8033 52.3623 43.74L53.9996 46.3597V17.6402L52.3623 20.26C51.7769 21.1966 50.543 21.4814 49.6063 20.896C48.6696 20.3105 48.3849 19.0766 48.9703 18.14L54.3036 9.60663C54.6691 9.02187 55.31 8.66663 55.9996 8.66663Z" fill="black"/>
</svg>
