<svg width="64" height="64" viewBox="0 0 64 64" fill="none" xmlns="http://www.w3.org/2000/svg">
<g clip-path="url(#clip0_339_2812)">
<path d="M45.5965 1.40165L1.40134 45.6033C0.503306 46.5067 -0.000220775 47.7291 0.000978701 49.003C0.00217818 50.2768 0.508006 51.4983 1.40774 52.4L11.5997 62.5984C12.5019 63.4974 13.7232 64.0027 14.9968 64.0039C16.2704 64.0051 17.4927 63.5021 18.3965 62.6048L62.5981 18.4033C63.4957 17.4993 63.9994 16.2771 63.9994 15.0033C63.9994 13.7294 63.4957 12.5072 62.5981 11.6033L52.4029 1.40165C51.4979 0.50373 50.2746 -0.00012207 48.9997 -0.00012207C47.7248 -0.00012207 46.5016 0.50373 45.5965 1.40165ZM12.5725 48.9984L10.1437 51.4272L4.07654 45.3568L6.50534 42.928L12.5725 48.9984ZM22.2877 48.9984L19.8589 51.4272L8.93094 40.4992L11.3597 38.0672L22.2877 48.9984ZM22.2877 39.2832L19.8589 41.712L13.7853 35.6448L16.2173 33.2128L22.2877 39.2832ZM27.1453 34.4257L24.7165 36.8545L18.6493 30.7873L21.0781 28.3553L27.1453 34.4257ZM36.8573 34.4257L34.4285 36.8545L23.5037 25.9296L25.9325 23.5009L36.8573 34.4257ZM36.8573 24.7137L34.4285 27.1425L28.3613 21.0753L30.7901 18.6465L36.8573 24.7137ZM41.7149 19.8593L39.2861 22.2881L33.2157 16.2177L35.6445 13.7889L41.7149 19.8593ZM51.4301 19.8593L48.9981 22.2881L38.0733 11.3601L40.5021 8.92805L51.4301 19.8593ZM51.4269 10.1473L48.9981 12.5761L42.9309 6.50245L45.3597 4.07685L51.4269 10.1473Z" fill="black"/>
</g>
<defs>
<clipPath id="clip0_339_2812">
<rect width="64" height="64" fill="white"/>
</clipPath>
</defs>
</svg>
