<svg width="64" height="64" viewBox="0 0 64 64" fill="none" xmlns="http://www.w3.org/2000/svg">
<g clip-path="url(#clip0_339_2785)">
<path d="M26.6822 26.033V39.5453C26.6821 39.9832 26.5556 40.4119 26.3177 40.7813C26.0798 41.1508 25.7404 41.4456 25.339 41.6313C24.9376 41.817 24.4911 41.8858 24.0515 41.8298C23.612 41.7738 23.1977 41.5953 22.8572 41.315L0.839653 23.1941C-0.279884 22.2724 -0.279884 20.5764 0.839653 19.6547L22.8572 1.53373C23.1977 1.25351 23.612 1.07494 24.0515 1.01893C24.4911 0.962923 24.9376 1.0318 25.339 1.21748C25.7404 1.40317 26.0798 1.69799 26.3177 2.06741C26.5556 2.43684 26.6821 2.86558 26.6822 3.30343V16.8158H40.6764C46.8622 16.8158 52.7946 19.2435 57.1687 23.5649C61.5427 27.8863 64 33.7474 64 39.8587V62.9016H54.6706V39.8587C54.6706 36.1919 53.1962 32.6753 50.5718 30.0824C47.9473 27.4896 44.3879 26.033 40.6764 26.033H26.6822Z" fill="black"/>
</g>
<defs>
<clipPath id="clip0_339_2785">
<rect width="64" height="64" fill="white" transform="matrix(-1 0 0 1 64 0)"/>
</clipPath>
</defs>
</svg>
