<svg width="200" height="25" viewBox="0 0 200 25" fill="none" xmlns="http://www.w3.org/2000/svg">
<path d="M102.631 0.96936V2.68591V4.40247L112.417 4.41154L122.204 4.42053L122.5 4.49026C123.519 4.7297 124.322 5.15236 125.014 5.81262C125.83 6.59079 126.346 7.54548 126.554 8.66325C126.627 9.05207 126.627 10.0221 126.554 10.4109C126.346 11.5287 125.83 12.4834 125.014 13.2615C124.322 13.9219 123.517 14.3454 122.5 14.5836L122.204 14.6532L115.838 14.6626L109.473 14.6721V16.3879V18.1036H118.138H126.804L126.842 18.2986C126.9 18.5914 127.079 19.1668 127.239 19.5704C127.44 20.0798 127.72 20.6096 128.049 21.107L128.333 21.5365H117.183H106.032L106.045 18.6888C106.057 15.9554 106.06 15.8273 106.123 15.4974C106.327 14.4275 106.802 13.5271 107.565 12.7652C108.453 11.8782 109.508 11.3857 110.769 11.2696C110.988 11.2495 113.316 11.2379 117.15 11.2379H123.188V9.53705V7.83625H112.909H102.631V9.53705V11.2379H103.474C103.938 11.2379 104.318 11.2431 104.318 11.2495C104.318 11.2559 104.199 11.4382 104.055 11.6546C103.466 12.5356 103.028 13.5789 102.807 14.6251C102.63 15.4648 102.631 15.4447 102.631 20.4052L102.631 24.9693H115.486H128.342L128.35 23.2665L128.358 21.5636L128.598 21.8544C128.874 22.1894 129.467 22.7762 129.817 23.0591C130.368 23.5057 131.118 23.9596 131.769 24.2413C132.721 24.653 133.634 24.8699 134.7 24.9374C135.357 24.9791 145.299 24.9797 145.983 24.9382C147.741 24.8313 149.381 24.2133 150.774 23.1325C151.124 22.8611 151.795 22.2054 152.087 21.8493L152.321 21.565L152.34 22.0578C152.35 22.3289 152.361 23.095 152.363 23.7601L152.367 24.9694L171.245 24.9688C183.644 24.9683 190.284 24.9574 190.592 24.9367C192.79 24.7885 194.705 23.9019 196.233 22.3253C197.505 21.0133 198.281 19.4155 198.564 17.5262C198.616 17.1799 198.621 16.8352 198.621 12.9542V8.75669L198.55 8.31286C198.395 7.34553 198.144 6.55218 197.728 5.71658C196.55 3.35199 194.342 1.65965 191.763 1.1446C190.957 0.983656 191.223 0.990445 185.187 0.978212C178.868 0.9654 178.871 0.965312 177.907 1.1758C177.032 1.36706 175.993 1.7902 175.26 2.25476C173.026 3.66981 171.635 5.84122 171.264 8.49146C171.201 8.9388 171.211 10.1909 171.28 10.6604C171.483 12.039 172.006 13.3542 172.779 14.4288L172.953 14.6706H171.222H169.49L169.48 10.8866C169.47 7.4737 169.464 7.07206 169.415 6.79059C169.153 5.27864 168.511 4.01699 167.474 2.98181C166.345 1.85369 164.871 1.1572 163.289 1.00348C163.063 0.981568 161.151 0.970339 157.642 0.970339H152.337L152.329 2.67512L152.321 4.37998L152.241 4.26817C152.069 4.02728 151.586 3.5046 151.277 3.22528C149.839 1.92695 148.121 1.17292 146.213 1.00266C145.723 0.959011 134.957 0.958946 134.466 1.00266C132.184 1.20585 130.047 2.32096 128.608 4.06001C128.473 4.22307 128.352 4.3565 128.339 4.35651C128.326 4.35651 128.204 4.22307 128.068 4.06001C127.732 3.65963 127.085 3.0369 126.695 2.74006C125.527 1.85053 124.262 1.3142 122.727 1.05672L122.329 0.989832L112.48 0.979629L102.631 0.96936ZM136.903 4.40689C137.769 4.40602 138.928 4.40848 140.496 4.41117L146.197 4.42092L146.51 4.49208C148.59 4.96601 150.074 6.454 150.53 8.52282L150.602 8.8505V12.9699V17.0894L150.531 17.4093C150.179 18.9979 149.194 20.2796 147.791 20.9758C147.159 21.2888 146.687 21.4292 146.01 21.5046C145.661 21.5435 134.963 21.5405 134.622 21.5015C133.43 21.3646 132.315 20.8112 131.486 19.9451C130.808 19.2361 130.366 18.3957 130.148 17.3996C130.08 17.0915 130.08 17.0623 130.069 13.1104C130.058 8.73367 130.054 8.82848 130.248 8.13807C130.491 7.27361 130.947 6.51599 131.613 5.86753C132.263 5.23418 132.964 4.82493 133.8 4.59054C134.328 4.44233 134.302 4.40952 136.903 4.40689ZM155.481 4.40937C156.15 4.40922 156.919 4.40966 157.78 4.41117L163.193 4.42024L163.443 4.48773C164.372 4.7387 165.081 5.26706 165.573 6.07591C165.778 6.41183 165.905 6.73889 165.987 7.14136C166.05 7.45143 166.051 7.53209 166.051 12.7798V18.1036H178.907H191.763V16.3878V14.6719L185.413 14.6626L179.063 14.6534L178.761 14.5839C178.065 14.4238 177.446 14.1637 176.923 13.8119C175.786 13.046 175.031 11.9222 174.731 10.5513C174.668 10.2634 174.659 10.1384 174.66 9.52145C174.66 8.86214 174.666 8.79645 174.748 8.44482C175.063 7.10095 175.806 6.01484 176.923 5.26216C177.454 4.9047 178.082 4.64311 178.777 4.48922L179.095 4.41896H184.921H190.748L191.065 4.48922C192.156 4.73052 192.998 5.19441 193.75 5.96814C194.369 6.6062 194.78 7.31196 195.012 8.13806C195.207 8.82917 195.203 8.73175 195.191 13.126L195.181 17.1206L195.099 17.4638C194.86 18.4627 194.441 19.2475 193.774 19.9451C193.336 20.4035 192.901 20.7182 192.31 21.0061C191.723 21.2915 191.236 21.4334 190.601 21.5032V21.5028C190.246 21.5417 152.355 21.5514 152.373 21.5125C152.378 21.4995 152.493 21.3241 152.627 21.1227C153.166 20.312 153.6 19.3221 153.808 18.4233L153.883 18.1035H158.249H162.615V12.97V7.83647L158.25 7.82852L153.885 7.82064L153.858 7.69579C153.692 6.93889 153.357 6.05328 152.986 5.39233C152.813 5.08347 152.439 4.50615 152.395 4.47879C152.38 4.46959 152.367 4.44863 152.367 4.43215C152.367 4.41786 153.475 4.40998 155.481 4.40937ZM133.498 7.83625V12.9699V18.1036H140.355H147.213V12.9699V7.83625H140.355H133.498ZM178.017 7.83625V9.53705V11.2379H184.89H191.763V9.53705V7.83625H184.89H178.017ZM154.054 11.2376L156.624 11.2455L159.194 11.2535L159.202 12.9621L159.21 14.6707H156.632H154.054V12.9542V11.2376ZM143.776 11.2376V12.9541V14.6707H140.339H136.902L136.91 12.9621L136.918 11.2535L140.347 11.2455L143.776 11.2376Z" fill="white"/>
<path fill-rule="evenodd" clip-rule="evenodd" d="M71.9838 24.9693L96.0096 0.96936L81.0873 0.969408L57.0615 24.9693L71.9838 24.9693Z" fill="white"/>
<path fill-rule="evenodd" clip-rule="evenodd" d="M0 24.9693L17.9784 7.01028C21.9991 2.99397 26.8922 0.96936 32.5783 0.96936H79.0227L70.0129 9.96935H34.9383C30.803 9.96935 27.2444 11.4418 24.3203 14.3627L13.7023 24.9693H0Z" fill="white"/>
<path fill-rule="evenodd" clip-rule="evenodd" d="M16.0483 24.9692L26.2643 14.7642C28.4574 12.5735 31.1264 11.4692 34.2278 11.4692L68.5111 11.4693L60.1584 19.8129H36.6629C34.7504 19.8129 33.1045 20.4939 31.7521 21.8449L28.6244 24.9692H16.0483Z" fill="white"/>
<path fill-rule="evenodd" clip-rule="evenodd" d="M78.1822 22.4476V21.9347H80.6735V22.4476H79.7481V24.9694H79.1121V22.4476H78.1822Z" fill="white"/>
<path fill-rule="evenodd" clip-rule="evenodd" d="M84.103 21.9347V24.9694H83.5152L83.513 22.5804L82.8938 24.9694H82.2827L81.6664 22.5804L81.6642 24.9694H81.0765V21.9347H82.029L82.5919 24.0045L83.1482 21.9347H84.103Z" fill="white"/>
</svg>
