<svg width="200" height="25" viewBox="0 0 200 25" fill="none" xmlns="http://www.w3.org/2000/svg">
<path d="M102.625 0.96936V2.73543V4.50149L111.691 4.51761L120.757 4.53365L121.341 4.73551C122.721 5.21267 123.75 6.12351 124.356 7.40473C124.742 8.22278 124.829 8.63282 124.825 9.61784C124.822 10.3513 124.801 10.5217 124.659 10.9913C124.227 12.414 123.331 13.4774 122.012 14.1364C120.911 14.6858 121.118 14.6704 114.868 14.6713L109.458 14.672V16.4067V18.1412H117.241H125.023L125.158 18.632C125.407 19.5397 125.786 20.3828 126.26 21.0883L126.53 21.4908H116.316H106.102V18.6471C106.102 16.2803 106.118 15.7262 106.197 15.3429C106.579 13.4986 107.968 12.0466 109.908 11.4653C110.241 11.3654 110.68 11.3561 115.887 11.338L121.506 11.3184V9.58584V7.85335H112.066H102.625V9.58793V11.3225H104.293C102.894 13.1931 102.647 14.848 102.621 16.5936V24.9601H104.849H114.641H126.661V23.3136V21.6673L127.022 22.086C128.254 23.5149 130.152 24.5593 132.083 24.872C132.885 25.0018 144.291 25.0018 145.093 24.872C146.228 24.6883 147.533 24.1839 148.408 23.591C148.608 23.4558 148.786 23.3451 148.804 23.3451C148.823 23.3451 148.838 23.7084 148.838 24.1525V24.9601H160.855H172.873V23.3231V21.6861L173.637 22.4424C174.723 23.5171 175.643 24.0927 176.979 24.5339C178.302 24.9704 178.112 24.9601 184.833 24.9601C191.422 24.9601 191.29 24.9663 192.496 24.5954C193.868 24.1736 194.947 23.5157 196.013 22.452C197.333 21.1349 198.125 19.6194 198.435 17.8195C198.571 17.0331 198.571 8.9617 198.435 8.17527C198.125 6.37536 197.333 4.85978 196.013 3.5427C194.694 2.22603 193.224 1.45872 191.364 1.11536C190.807 1.01249 190.348 1.00473 184.831 1.00473C178.167 1.00473 178.401 0.991368 177.001 1.45334C175.609 1.91315 174.733 2.46245 173.621 3.5741L172.84 4.35434L172.092 3.60146C170.977 2.47882 169.93 1.83292 168.521 1.39915C167.168 0.982686 167.766 1.00473 157.828 1.00473H148.868L148.851 1.82716C148.842 2.2795 148.82 2.64958 148.803 2.64958C148.785 2.64958 148.608 2.53893 148.408 2.40365C147.887 2.05048 146.798 1.54455 146.171 1.36452C144.894 0.997499 145.047 1.00474 138.588 1.0048C132.13 1.0048 132.282 0.997649 131.005 1.36452C130.298 1.56783 129.256 2.0705 128.569 2.54C128.026 2.91109 127.159 3.7069 126.789 4.17354L126.601 4.41145L126.412 4.17354C126.042 3.7069 125.175 2.91109 124.632 2.54C123.946 2.07075 122.904 1.56784 122.197 1.36482C120.907 0.994245 121.424 1.01247 111.601 0.989955L102.625 0.96936ZM158.683 4.50419C166.454 4.50461 166.683 4.50783 167.168 4.6239C168.124 4.85258 168.953 5.32644 169.643 6.03871C170.321 6.73785 170.733 7.48157 170.955 8.40256C171.103 9.02119 171.114 10.0019 170.98 10.6517C170.598 12.496 169.208 13.9479 167.269 14.5293C166.936 14.6292 166.497 14.6385 161.29 14.6566L155.671 14.6761V16.4084V18.1408L163.47 18.156L171.27 18.1711L171.433 18.7394C171.692 19.6439 172.003 20.3331 172.49 21.087L172.751 21.4908H162.529H152.307L152.328 18.515L152.348 15.5393L152.515 15.0032C152.958 13.5706 153.847 12.5161 155.165 11.8581C156.266 11.3087 156.059 11.3241 162.309 11.3232L167.718 11.3225V9.58792V7.85334H159.938H152.158L151.995 7.27474C151.785 6.52647 151.42 5.70247 151.017 5.0614C150.84 4.7805 150.696 4.54008 150.696 4.52719C150.696 4.51429 154.29 4.5039 158.683 4.50419ZM188.053 4.51071C190.569 4.51002 190.759 4.53353 191.131 4.62157C192.095 4.85008 192.925 5.32272 193.618 6.03871C194.296 6.73785 194.709 7.48157 194.93 8.40256C195.043 8.87419 195.049 9.11108 195.05 12.9549C195.05 16.4222 195.036 17.0767 194.955 17.4709C194.565 19.3662 193.052 20.9141 191.143 21.3707C190.662 21.4858 184.803 21.4897 179.161 21.4842C177.816 21.4236 174.959 20.0243 174.642 16.8876L174.624 13.1539C174.601 8.26505 174.591 8.41998 175.112 7.34492C175.612 6.31115 176.398 5.52691 177.448 5.013C178.493 4.50115 177.968 4.53717 184.669 4.51798C186.118 4.51383 187.215 4.51095 188.053 4.51071ZM132.445 4.53365H138.588H144.732L145.316 4.73551C146.697 5.21267 147.726 6.12351 148.331 7.40473C148.826 8.45178 148.808 8.23818 148.808 12.9973C148.808 17.7564 148.826 17.5428 148.331 18.5898C147.726 19.8711 146.697 20.7819 145.316 21.2591L144.732 21.4608L138.738 21.4719C133.929 21.4808 132.673 21.4672 132.385 21.4031C130.808 21.0532 129.529 20.0372 128.845 18.5898C128.351 17.5428 128.369 17.7564 128.369 12.9973C128.369 8.23818 128.351 8.45178 128.845 7.40473C129.451 6.12351 130.48 5.21267 131.861 4.73551L132.445 4.53365ZM131.695 7.85335V12.9973V18.1412H138.588H145.481V12.9973V7.85335H138.588H131.695ZM177.968 7.85335V12.9973V18.1412H184.831H191.694V12.9973V7.85335H184.831H177.968ZM135.172 11.3224H138.588H142.005V12.9972V14.672H138.588H135.172V12.9972V11.3224ZM181.444 11.3224H184.831H188.217V12.9973V14.672H184.831H181.444V12.9972V11.3224Z" fill="white"/>
<path fill-rule="evenodd" clip-rule="evenodd" d="M71.9788 24.9693L96.003 0.96936L81.0817 0.969408L57.0575 24.9693L71.9788 24.9693Z" fill="white"/>
<path fill-rule="evenodd" clip-rule="evenodd" d="M0 24.9693L17.9772 7.01028C21.9976 2.99397 26.8903 0.96936 32.576 0.96936H79.0172L70.0081 9.96935H34.9359C30.8009 9.96935 27.2426 11.4418 24.3186 14.3627L13.7013 24.9693H0Z" fill="white"/>
<path fill-rule="evenodd" clip-rule="evenodd" d="M16.0472 24.9692L26.2625 14.7642C28.4554 12.5735 31.1242 11.4692 34.2255 11.4692L68.5064 11.4693L60.1542 19.8129H36.6604C34.748 19.8129 33.1022 20.4939 31.7499 21.8449L28.6224 24.9692H16.0472Z" fill="white"/>
<path fill-rule="evenodd" clip-rule="evenodd" d="M78.1768 22.4476V21.9347H80.668V22.4476H79.7425V24.9694H79.1066V22.4476H78.1768Z" fill="white"/>
<path fill-rule="evenodd" clip-rule="evenodd" d="M84.0972 21.9347V24.9694H83.5094L83.5072 22.5804L82.8881 24.9694H82.277L81.6608 22.5804L81.6585 24.9694H81.0708V21.9347H82.0233L82.5862 24.0045L83.1425 21.9347H84.0972Z" fill="white"/>
</svg>
