<svg width="200" height="25" viewBox="0 0 200 25" fill="none" xmlns="http://www.w3.org/2000/svg">
<path d="M133.626 18.1192H147.343V7.81926H133.626V18.1192ZM137.049 11.2441H143.895V14.6693H137.049V11.2441Z" fill="white"/>
<path d="M194.814 18.1194V14.6945H192.94V7.8194C192.937 6.00353 192.215 4.26283 190.932 2.9788C189.649 1.69477 187.909 0.972169 186.095 0.969364H135.175C133.847 0.968071 132.536 1.27698 131.348 1.87154C130.159 2.4661 129.126 3.3299 128.33 4.39425C127.527 3.33138 126.488 2.46907 125.296 1.87487C124.104 1.28068 122.791 0.970747 121.459 0.969364H102.621V4.39425H121.459C122.818 4.40355 124.118 4.95024 125.076 5.91503C126.033 6.87985 126.571 8.18446 126.571 9.54424C126.571 10.904 126.033 12.2086 125.076 13.1734C124.118 14.1382 122.818 14.6849 121.459 14.6942H109.467V18.1194H126.781C127.031 19.3636 127.561 20.5346 128.33 21.5443H106.068V16.3944C106.067 15.7178 106.2 15.0476 106.458 14.4223C106.717 13.7971 107.096 13.2289 107.574 12.7505C108.052 12.2721 108.62 11.8928 109.244 11.6343C109.87 11.3758 110.539 11.2433 111.215 11.2443H123.207V7.8194H102.621V11.2443H104.345C103.227 12.7283 102.622 14.536 102.621 16.3944V24.9694H128.33V21.5445C129.128 22.6068 130.162 23.469 131.35 24.0634C132.538 24.6577 133.847 24.9678 135.175 24.9694H145.444C147.301 24.9644 149.106 24.3593 150.591 23.2444V24.9694H194.814V21.5445H154.014V16.3944C154.013 15.7178 154.146 15.0476 154.404 14.4223C154.662 13.797 155.041 13.2289 155.52 12.7504C155.998 12.272 156.565 11.8927 157.19 11.6342C157.815 11.3758 158.485 11.2433 159.161 11.2443H171.153V7.8194H153.839C153.589 6.57516 153.059 5.40412 152.29 4.3945H169.43C170.789 4.4038 172.089 4.95049 173.046 5.91527C174.004 6.8801 174.542 8.18467 174.542 9.54448C174.542 10.9043 174.004 12.2089 173.046 13.1737C172.089 14.1385 170.789 14.6852 169.43 14.6945H157.438V18.1194H186.095V7.8194H177.899C177.833 6.60226 177.454 5.42277 176.8 4.3945H186.069C186.519 4.39309 186.965 4.48073 187.381 4.65235C187.797 4.82396 188.175 5.07621 188.493 5.3945C188.811 5.71279 189.063 6.09093 189.234 6.50707C189.406 6.92323 189.494 7.36922 189.492 7.8194V18.0943H194.814V18.1194ZM145.444 21.5445H135.175C134.499 21.5454 133.83 21.4129 133.205 21.1544C132.58 20.8959 132.012 20.5166 131.534 20.0381C131.056 19.5597 130.677 18.9916 130.418 18.3664C130.16 17.7411 130.028 17.0709 130.029 16.3944V9.54434C130.028 8.86775 130.16 8.19761 130.418 7.57233C130.677 6.94706 131.056 6.37892 131.534 5.90051C132.012 5.42206 132.58 5.04276 133.205 4.78427C133.83 4.52582 134.499 4.39327 135.176 4.39425H145.444C146.12 4.3933 146.79 4.52586 147.415 4.78434C148.04 5.04283 148.608 5.42217 149.086 5.90058C149.564 6.37899 149.943 6.94713 150.201 7.5724C150.459 8.19764 150.592 8.86779 150.591 9.54434V16.3944C150.592 17.071 150.459 17.7411 150.201 18.3664C149.943 18.9917 149.564 19.5598 149.086 20.0383C148.607 20.5167 148.04 20.896 147.415 21.1544C146.79 21.4129 146.12 21.5455 145.444 21.5445ZM176.825 14.6945C177.455 13.6547 177.831 12.4816 177.924 11.2696H182.697V14.6945H176.825Z" fill="white"/>
<path d="M24.1832 14.6439L13.5515 24.9686H0L16.8709 8.19407C23.1349 1.99434 26.1548 0.96936 36.8364 0.96936H79.064L69.9042 9.96911H38.0591C30.0734 9.96911 28.3759 10.5691 24.1832 14.6434V14.6439ZM68.5313 11.394H38.2337C30.1978 11.394 28.9251 12.0191 25.2812 15.6689L15.9966 24.9694H28.5756L31.5705 21.9694C33.5429 19.9936 34.4406 19.7943 38.4085 19.7943H60.146L68.5313 11.394ZM71.8 24.9686L95.8345 0.96936H80.9101L56.9517 24.9686H71.8Z" fill="white"/>
</svg>
