<svg width="162" height="25" viewBox="0 0 162 25" fill="none" xmlns="http://www.w3.org/2000/svg">
<g clip-path="url(#clip0_75_1623)">
<path d="M77.8885 22.3927H78.8353V24.9312H79.3623V22.3927H80.3168V21.9416H77.896V22.3927H77.8885ZM80.645 24.9387H81.1413V22.6297H81.1492L81.9815 24.9387H82.4166L83.249 22.6297H83.2568V24.9387H83.7531V21.9416H83.0277L82.2256 24.2888H82.2181L81.3933 21.9416H80.6528V24.9387H80.645ZM24.1529 14.6247L13.5389 24.9387H0L16.8452 8.19456C23.1067 1.98623 26.1308 0.96936 36.806 0.96936H78.9881L69.8322 9.94547H38.0125C30.0328 9.94547 28.3375 10.5571 24.1529 14.6247ZM68.4654 11.3752H38.2035C30.1703 11.3752 28.9104 11.9945 25.2678 15.6415L15.9822 24.9387H28.5363L31.5219 21.9493C33.4919 19.9767 34.3777 19.7855 38.3563 19.7855H60.0656L68.4654 11.3752ZM71.7414 24.9387L95.7417 0.96936H80.836L56.8966 24.9387H71.7414Z" fill="white"/>
<path d="M97.7418 18.5087V24.9233H128.874V17.7594H105.866V16.3985H120.329C125.713 16.3985 129.195 13.3402 129.195 8.59215C129.195 4.18058 125.354 0.97699 120.07 0.97699H97.7418V8.14105H121.421V9.50199H108.058C101.789 9.50199 97.7418 13.042 97.7418 18.5087Z" fill="white"/>
<path d="M130.325 18.5087V24.9233H161.373L161.457 20.2519V17.7594H138.45V16.3985H152.913C158.296 16.3985 161.778 13.3402 161.778 8.59215C161.778 4.18058 157.937 0.97699 152.653 0.97699H130.325V8.14105H154.005V9.50199H140.642C134.372 9.50199 130.325 13.042 130.325 18.5087Z" fill="white"/>
</g>
<defs>
<clipPath id="clip0_75_1623">
<rect width="161.778" height="23.9694" fill="white" transform="translate(0 0.96936)"/>
</clipPath>
</defs>
</svg>
